<?xml version="1.0" encoding="utf-8"?><svg xmlns="http://www.w3.org/2000/svg" xmlns:xlink="http://www.w3.org/1999/xlink"><symbol fill="none" viewBox="0 0 37 32" id="icon_search" xmlns="http://www.w3.org/2000/svg"><path fill-rule="evenodd" clip-rule="evenodd" d="M16.017 24.45c-7.076 0-12.812-5.01-12.812-11.2 0-6.19 5.736-11.21 12.812-11.21 7.077 0 12.814 5.02 12.814 11.21 0 6.19-5.737 11.2-12.814 11.2Zm20.507 5.8-9.291-8.13c2.432-2.35 3.927-5.45 3.927-8.87C31.16 5.93 24.38 0 16.017 0S.875 5.93.875 13.25c0 7.31 6.78 13.24 15.142 13.24 3.614 0 6.928-1.11 9.532-2.96l9.328 8.16c.456.4 1.192.4 1.647 0 .456-.39.456-1.04 0-1.44Z" fill="#8A8A8A"/></symbol></svg>