<?xml version="1.0" encoding="utf-8"?><!DOCTYPE svg PUBLIC "-//W3C//DTD SVG 1.1//EN" "http://www.w3.org/Graphics/SVG/1.1/DTD/svg11.dtd"><svg viewBox="0 0 800 800" xmlns="http://www.w3.org/2000/svg" xmlns:xlink="http://www.w3.org/1999/xlink"><style>:root>svg{display:none}:root>svg:target{display:block}</style><svg viewBox="0 0 32 32" xml:space="preserve" id="arrow-left_1" xmlns="http://www.w3.org/2000/svg"><path d="M16 32c8.822 0 16-7.178 16-16S24.822 0 16 0 0 7.178 0 16s7.178 16 16 16zm0-31c8.271 0 15 6.729 15 15s-6.729 15-15 15S1 24.271 1 16 7.729 1 16 1z"/><path d="M18.069 21.2a.498.498 0 0 0 .708 0 .5.5 0 0 0 0-.707L14.284 16l4.492-4.493a.5.5 0 0 0-.707-.707l-4.846 4.846a.5.5 0 0 0 0 .707l4.846 4.847z"/></svg><svg viewBox="0 0 32 32" xml:space="preserve" id="arrow-left_square_1" xmlns="http://www.w3.org/2000/svg"><path d="M18.069 21.2a.498.498 0 0 0 .708 0 .5.5 0 0 0 0-.707L14.284 16l4.492-4.493a.5.5 0 0 0-.707-.707l-4.846 4.846a.5.5 0 0 0 0 .707l4.846 4.847z"/><path d="M30.5 32c.827 0 1.5-.673 1.5-1.5v-29c0-.827-.673-1.5-1.5-1.5h-29C.673 0 0 .673 0 1.5v29c0 .827.673 1.5 1.5 1.5h29zM1 30.5v-29a.5.5 0 0 1 .5-.5h29a.5.5 0 0 1 .5.5v29a.5.5 0 0 1-.5.5h-29a.5.5 0 0 1-.5-.5z"/></svg><svg viewBox="0 0 32 32" xml:space="preserve" id="arrow-right_1" xmlns="http://www.w3.org/2000/svg"><path d="M16 32c8.822 0 16-7.178 16-16S24.822 0 16 0 0 7.178 0 16s7.178 16 16 16zm0-31c8.271 0 15 6.729 15 15s-6.729 15-15 15S1 24.271 1 16 7.729 1 16 1z"/><path d="M13.224 21.2a.498.498 0 0 0 .708 0l4.846-4.846a.5.5 0 0 0 0-.707L13.931 10.8a.5.5 0 0 0-.707.707L17.716 16l-4.492 4.493a.499.499 0 0 0 0 .707z"/></svg><svg viewBox="0 0 32 32" xml:space="preserve" id="arrow-right_square_1" xmlns="http://www.w3.org/2000/svg"><path d="M13.224 21.2a.498.498 0 0 0 .708 0l4.846-4.846a.5.5 0 0 0 0-.707L13.931 10.8a.5.5 0 0 0-.707.707L17.716 16l-4.492 4.493a.499.499 0 0 0 0 .707z"/><path d="M0 1.5v29c0 .827.673 1.5 1.5 1.5h29c.827 0 1.5-.673 1.5-1.5v-29c0-.827-.673-1.5-1.5-1.5h-29C.673 0 0 .673 0 1.5zm31 0v29a.5.5 0 0 1-.5.5h-29a.5.5 0 0 1-.5-.5v-29a.5.5 0 0 1 .5-.5h29a.5.5 0 0 1 .5.5z"/></svg><svg viewBox="0 0 22 32" xml:space="preserve" id="badge2_1" xmlns="http://www.w3.org/2000/svg"><path d="M22 11c0-6.065-4.935-11-11-11S0 4.935 0 11c0 3.577 1.724 6.75 4.375 8.761L.872 28.939c-.063.166-.034.354.077.492s.283.21.464.181l3.859-.575 2.563 2.802a.509.509 0 0 0 .464.152.498.498 0 0 0 .373-.312l2.667-6.987 2.667 6.987a.5.5 0 0 0 .836.159l2.563-2.802 3.859.575a.5.5 0 0 0 .54-.675L18.1 19.387C20.482 17.368 22 14.36 22 11zM1 11C1 5.486 5.486 1 11 1s10 4.486 10 10-4.486 10-10 10S1 16.514 1 11zm9 11.142.621 1.148-2.685 7.274-2.151-2.4a.455.455 0 0 0-.421-.156l-3.264.488 3.117-8.153c1.494.927 3.042 1.503 4.896 1.621l-.113.174v.004zm10.562 6.354-3.271-.488a.497.497 0 0 0-.443.156l-2.196 2.4-3.276-8.583a10.92 10.92 0 0 0 5.9-1.959l3.286 8.474z"/><path d="M16.5 11c0-3.032-2.468-5.5-5.5-5.5S5.5 7.968 5.5 11s2.468 5.5 5.5 5.5 5.5-2.468 5.5-5.5zm-10 0c0-2.481 2.019-4.5 4.5-4.5s4.5 2.019 4.5 4.5-2.019 4.5-4.5 4.5-4.5-2.019-4.5-4.5z"/></svg><svg viewBox="0 0 22 32" xml:space="preserve" id="bulb_1" xmlns="http://www.w3.org/2000/svg"><path d="M16 27H7a.5.5 0 0 0 0 1h9a.5.5 0 0 0 0-1zM16.5 29.5a.5.5 0 0 0-.5-.5H7a.5.5 0 0 0 0 1h9a.5.5 0 0 0 .5-.5zM9 31a.5.5 0 0 0 0 1h5a.5.5 0 0 0 0-1H9zM17 25.5v-.611c0-2.534.926-5.049 2.677-7.274A10.723 10.723 0 0 0 22 10.918C22 4.897 17.065 0 11 0c-.415 0-.838.023-1.255.069C4.873.605.825 4.479.12 9.281c-.495 3.374.566 6.709 2.913 9.15C4.946 20.423 6 22.897 6 25.398v.102a.5.5 0 0 0 .5.5h10a.5.5 0 0 0 .5-.5zM9 14H7.25c-.965 0-1.75-.893-1.75-1.84s.785-1.779 1.75-1.779S9 11.09 9 12.037V14zm3 11h-2V15h2v10zm4 0h-3V15h1.75c1.517 0 2.75-1.341 2.75-2.84s-1.233-2.779-2.75-2.779S12 10.538 12 12.037V14h-2v-1.963c0-1.499-1.233-2.718-2.75-2.718S4.5 10.661 4.5 12.16 5.733 15 7.25 15H9v10H6.992c-.105-2.623-1.246-5.188-3.238-7.262C1.623 15.521.66 12.492 1.11 9.426c.64-4.359 4.318-7.876 8.744-8.363C15.898.391 21 5.075 21 10.917a9.732 9.732 0 0 1-2.108 6.078C17 19.399 16 22.128 16 24.889V25zm-3-11v-1.963c0-.947.785-1.718 1.75-1.718s1.75.893 1.75 1.84S15.715 14 14.75 14H13z"/></svg><svg viewBox="0 0 37 32" xml:space="preserve" id="chat-bubble_1" xmlns="http://www.w3.org/2000/svg"><path d="m6.371 20.055-1.924 4.103a.5.5 0 0 0 .662.665l6.774-3.139a17.79 17.79 0 0 0 2.17.141c7.779 0 14.107-4.896 14.107-10.913C28.161 4.896 21.833 0 14.054 0S-.053 4.896-.053 10.912c0 3.733 2.391 7.12 6.424 9.143zM14.054 1c7.227 0 13.107 4.446 13.107 9.912s-5.88 9.913-13.107 9.913a17.17 17.17 0 0 1-2.187-.15.523.523 0 0 0-.273.042l-5.658 2.621 1.551-3.307a.499.499 0 0 0-.243-.666C3.301 17.542.947 14.382.947 10.912.947 5.446 6.827 1 14.054 1z"/><path d="M7.197 13.328a2.1 2.1 0 0 0 .491.059 1.99 1.99 0 0 0 1.572-.763 2.012 2.012 0 0 0 .369-1.728 1.984 1.984 0 0 0-1.451-1.451 2.014 2.014 0 0 0-2.062.705 2.01 2.01 0 0 0-.369 1.727c.17.71.739 1.279 1.45 1.451zm-.296-2.558a.996.996 0 0 1 .787-.383.987.987 0 0 1 .968.744c.076.317.011.628-.183.874-.244.31-.645.445-1.042.351a.987.987 0 0 1-.713-.713 1.003 1.003 0 0 1 .183-.873zM13.098 13.328a2.1 2.1 0 0 0 .491.059c.617 0 1.189-.278 1.571-.763a2.012 2.012 0 0 0 .369-1.728 1.984 1.984 0 0 0-1.451-1.451 2.016 2.016 0 0 0-2.062.705 2.013 2.013 0 0 0-.37 1.727 1.987 1.987 0 0 0 1.452 1.451zm-.296-2.558a.996.996 0 0 1 .787-.383.986.986 0 0 1 .968.744 1 1 0 0 1-.183.874 1.01 1.01 0 0 1-1.042.351.989.989 0 0 1-.714-.713 1 1 0 0 1 .184-.873zM18.998 13.328a2.1 2.1 0 0 0 .491.059 1.99 1.99 0 0 0 1.572-.763 2.012 2.012 0 0 0 .369-1.728 1.984 1.984 0 0 0-1.451-1.451 2.015 2.015 0 0 0-2.062.705 2.01 2.01 0 0 0-.369 1.727c.171.71.74 1.279 1.45 1.451zm-.296-2.558a.996.996 0 0 1 .787-.383.987.987 0 0 1 .968.744c.076.317.011.628-.183.874-.244.31-.646.445-1.042.351a.989.989 0 0 1-.714-.713 1.007 1.007 0 0 1 .184-.873zM29.908 12.218a.5.5 0 1 0-.286.959c3.847 1.146 6.431 4.009 6.431 7.121 0 2.683-1.917 5.206-5.003 6.585a.5.5 0 0 0-.286.557l.59 2.861-3.17-2.395a.525.525 0 0 0-.373-.096 13.48 13.48 0 0 1-1.916.142c-3.661 0-7.203-1.87-8.613-4.548a.5.5 0 1 0-.884.465c1.575 2.993 5.481 5.083 9.498 5.083.601 0 1.223-.041 1.851-.123l4.065 3.07a.496.496 0 0 0 .568.024.5.5 0 0 0 .223-.523l-.779-3.774c3.236-1.577 5.229-4.354 5.229-7.327 0-3.615-2.804-6.786-7.145-8.081z"/></svg><svg viewBox="0 0 32 32" xml:space="preserve" id="close_1" xmlns="http://www.w3.org/2000/svg"><path d="M16 0A15.888 15.888 0 0 0 4.687 4.687C1.665 7.708 0 11.727 0 16s1.665 8.292 4.687 11.313C7.708 30.336 11.726 32 16 32s8.292-1.664 11.313-4.687C30.335 24.292 32 20.273 32 16s-1.665-8.292-4.687-11.313A15.888 15.888 0 0 0 16 0zm10.606 26.606C23.773 29.439 20.007 31 16 31s-7.773-1.561-10.606-4.394S1 20.007 1 16 2.561 8.227 5.394 5.394 11.993 1 16 1s7.773 1.561 10.606 4.394S31 11.993 31 16s-1.561 7.773-4.394 10.606z"/><path d="M22.01 9.989a.5.5 0 0 0-.707 0L16 15.293l-5.303-5.304a.5.5 0 0 0-.707.707L15.293 16 9.99 21.304a.5.5 0 0 0 .708.707L16 16.707l5.303 5.304a.498.498 0 0 0 .708 0 .5.5 0 0 0 0-.707L16.707 16l5.303-5.304a.499.499 0 0 0 0-.707z"/></svg><svg viewBox="0 0 40 32" xml:space="preserve" id="delivery-van_1" xmlns="http://www.w3.org/2000/svg"><path d="M22.5 0h-21C.673 0 0 .673 0 1.5v22c0 .827.673 1.5 1.5 1.5h21c.827 0 1.5-.673 1.5-1.5v-22c0-.827-.673-1.5-1.5-1.5zm.5 23.5c0 .275-.225.5-.5.5h-21a.501.501 0 0 1-.5-.5v-22c0-.275.225-.5.5-.5h21c.275 0 .5.225.5.5v22zM36.225 5.811c-.259-.5-.77-.811-1.333-.811H28.5c-.827 0-1.5.673-1.5 1.5v8c0 .827.673 1.5 1.5 1.5H35a.5.5 0 0 0 0-1h-6.5a.501.501 0 0 1-.5-.5v-8c0-.275.225-.5.5-.5h6.392c.188 0 .358.104.444.271l3.609 6.96a.5.5 0 0 1 .055.227V23.5c0 .275-.225.5-.5.5H27a.5.5 0 0 0 0 1h11.5c.827 0 1.5-.673 1.5-1.5V13.458c0-.241-.059-.48-.168-.69l-3.607-6.957z"/><path d="M20 14H5a.5.5 0 0 0 0 1h15a.5.5 0 0 0 0-1zM36.5 27a.5.5 0 0 0-.5.5c0 1.93-1.57 3.5-3.5 3.5S29 29.43 29 27.5a.5.5 0 0 0-1 0c0 2.481 2.019 4.5 4.5 4.5s4.5-2.019 4.5-4.5a.5.5 0 0 0-.5-.5zM11.5 27a.5.5 0 0 0-.5.5c0 1.93-1.57 3.5-3.5 3.5S4 29.43 4 27.5a.5.5 0 0 0-1 0C3 29.981 5.019 32 7.5 32s4.5-2.019 4.5-4.5a.5.5 0 0 0-.5-.5z"/></svg><svg viewBox="0 0 32 32" xml:space="preserve" id="emo-smile_1" xmlns="http://www.w3.org/2000/svg"><path d="M16 32c8.822 0 16-7.178 16-16S24.822 0 16 0 0 7.178 0 16s7.178 16 16 16zm0-31c8.271 0 15 6.729 15 15s-6.729 15-15 15S1 24.271 1 16 7.729 1 16 1z"/><path d="M10.36 14.337a2.624 2.624 0 0 0 2.62-2.621 2.624 2.624 0 0 0-2.62-2.621 2.624 2.624 0 0 0-2.621 2.621 2.624 2.624 0 0 0 2.621 2.621zm0-4.241a1.622 1.622 0 0 1 0 3.242 1.623 1.623 0 0 1-1.621-1.621c0-.894.728-1.621 1.621-1.621zM21.486 14.323a2.608 2.608 0 0 0 2.606-2.607c0-1.437-1.169-2.606-2.606-2.606s-2.607 1.169-2.607 2.606a2.61 2.61 0 0 0 2.607 2.607zm0-4.213c.886 0 1.606.721 1.606 1.606 0 .886-.721 1.607-1.606 1.607a1.608 1.608 0 0 1-1.607-1.607c0-.885.721-1.606 1.607-1.606zM9.651 20.465a.499.499 0 1 0-.804.593c1.876 2.546 4.369 3.948 7.021 3.948 2.671 0 5.177-1.419 7.058-3.996a.5.5 0 0 0-.808-.59c-1.687 2.312-3.906 3.586-6.249 3.586-2.327-.001-4.535-1.258-6.218-3.541z"/></svg><svg viewBox="0 0 32 32" xml:space="preserve" id="facebook_1" xmlns="http://www.w3.org/2000/svg"><path d="M16-.035C7.159-.035-.035 7.159-.035 16S7.159 32.035 16 32.035 32.035 24.841 32.035 16 24.841-.035 16-.035zm0 31C7.748 30.965 1.035 24.252 1.035 16S7.748 1.035 16 1.035 30.965 7.748 30.965 16 24.252 30.965 16 30.965z"/><path d="M19.5 7h-2.668C13.652 7 13 8.737 13 11.345L13.002 13H11.5a.5.5 0 0 0-.5.5v3a.5.5 0 0 0 .5.5H13v7.5a.5.5 0 0 0 .5.5h3.058a.5.5 0 0 0 .5-.5l.002-7.5h2.44a.5.5 0 0 0 .5-.5v-3a.5.5 0 0 0-.5-.5h-2.441l.003-1.396c0-.673 0-.673.629-.674l1.789.07a.502.502 0 0 0 .52-.5v-3a.5.5 0 0 0-.5-.5zM19 9.98l-1.289-.05c-1.521 0-1.648.827-1.648 1.672l-.004 1.896a.5.5 0 0 0 .499.502H19v2h-2.44a.5.5 0 0 0-.5.5l-.002 7.5H14v-7.5a.5.5 0 0 0-.5-.5H12v-2h1.503a.5.5 0 0 0 .5-.501L14 11.344C14 9.079 14.424 8 16.832 8H19v1.98z"/></svg><svg viewBox="0 0 27 32" xml:space="preserve" id="file_1" xmlns="http://www.w3.org/2000/svg"><path d="M0 8.383V30.5c0 .827.673 1.5 1.5 1.5h24c.827 0 1.5-.673 1.5-1.5v-29c0-.827-.673-1.5-1.5-1.5H9.744a.503.503 0 0 0-.325.119L.176 8.002A.5.5 0 0 0 0 8.383zM25.5 1a.5.5 0 0 1 .5.5v29a.5.5 0 0 1-.5.5h-24a.5.5 0 0 1-.5-.5V10h9.5a.5.5 0 0 0 .5-.5V1h14.5zM1 8.613 9.928 1H10v8H1v-.387z"/><path d="M5.5 13.5a.5.5 0 0 0 .5.5h16a.5.5 0 0 0 0-1H6a.5.5 0 0 0-.5.5zM22 18H6a.5.5 0 0 0 0 1h16a.5.5 0 0 0 0-1zM22 23H6a.5.5 0 0 0 0 1h16a.5.5 0 0 0 0-1z"/></svg><svg viewBox="0 0 28 32" xml:space="preserve" id="files_1" xmlns="http://www.w3.org/2000/svg"><path d="M21.5 0H7.685a.5.5 0 0 0-.337.131l-.086.078c-.144.07-.284.157-.41.281L4.364 2.857.163 6.694A.5.5 0 0 0 0 7.063V25.5c0 .827.673 1.5 1.5 1.5h20c.827 0 1.5-.673 1.5-1.5v-24c0-.827-.673-1.5-1.5-1.5zM1.463 6.996l3.584-3.41L7.802 1.07c.06-.019.12-.039.198-.049V7H1.459l.004-.004zM22 25.5a.5.5 0 0 1-.5.5h-20a.5.5 0 0 1-.5-.5V8h7.5a.5.5 0 0 0 .5-.5V1h12.5a.5.5 0 0 1 .5.5v24z"/><path d="M26.5 31h-20a.5.5 0 0 1-.5-.5v-.604a.5.5 0 0 0-1 0v.604c0 .827.673 1.5 1.5 1.5h20c.827 0 1.5-.673 1.5-1.5v-24c0-.827-.673-1.5-1.5-1.5h-.792a.5.5 0 0 0 0 1h.792a.5.5 0 0 1 .5.5v24a.5.5 0 0 1-.5.5zM18 11H5a.5.5 0 0 0 0 1h13a.5.5 0 0 0 0-1z"/><path d="M18 15H5a.5.5 0 0 0 0 1h13a.5.5 0 0 0 0-1zM18 19H5a.5.5 0 0 0 0 1h13a.5.5 0 0 0 0-1z"/></svg><svg viewBox="0 0 32 32" xml:space="preserve" id="folder_1" xmlns="http://www.w3.org/2000/svg"><path d="M32 6.5c0-.827-.673-1.5-1.5-1.5H14.066a.502.502 0 0 1-.429-.243L11.22.727A1.51 1.51 0 0 0 9.934 0H1.5C.673 0 0 .673 0 1.5V9c0 .093.032.175.077.25A.481.481 0 0 0 0 9.5v21c0 .827.673 1.5 1.5 1.5h29c.827 0 1.5-.673 1.5-1.5v-21a.481.481 0 0 0-.077-.25A.481.481 0 0 0 32 9V6.5zm-1 24a.5.5 0 0 1-.5.5h-29a.5.5 0 0 1-.5-.5V10h30v20.5zM1 9V1.5a.5.5 0 0 1 .5-.5h8.434c.175 0 .339.093.429.243l2.417 4.03c.27.448.763.727 1.286.727H30.5a.5.5 0 0 1 .5.5V9H1z"/></svg><svg viewBox="0 0 39 32" xml:space="preserve" id="group_1" xmlns="http://www.w3.org/2000/svg"><path d="M5.983 26.591c4.085-1.086 7.039-2.13 7.828-5.695a.5.5 0 0 0-.148-.474c-.251-.233-2.478-2.359-3.323-5.146a1.643 1.643 0 0 0-.1-.196.57.57 0 0 0-.062-.084c-.165-.179-1.614-1.792-1.574-3.242.016-.545.229-1.001.652-1.396a.497.497 0 0 0 .155-.305C9.525 9.128 10.728 1 17.667 1c6.801 0 7.982 8.245 8.095 9.185.011.09.045.175.101.247.209.269 1.156 1.72-.647 3.887-.025.03-.089.147-.105.182a.467.467 0 0 0-.036.094c-.157.593-1.077 3.671-3.722 6.027a.502.502 0 0 0-.159.464c.085.462.991 4.53 6.647 5.156 4.438.492 6.17 5.357 6.188 5.406a.5.5 0 0 0 .947-.323c-.019-.055-1.929-5.513-7.024-6.077-4.342-.48-5.457-3.175-5.711-4.081 2.646-2.478 3.605-5.591 3.8-6.275 2.04-2.505 1.046-4.43.7-4.953C26.253 6.187 23.821 0 17.667 0c-7.461 0-8.996 8.16-9.225 9.757a2.878 2.878 0 0 0-.839 1.969c-.047 1.733 1.349 3.411 1.806 3.925.814 2.599 2.648 4.594 3.36 5.297-.756 2.811-3.188 3.65-7.044 4.675C.888 26.909.016 31.364.007 31.409a.5.5 0 0 0 .982.187c.009-.038.841-3.901 4.994-5.005z"/><path d="M38.083 26.657c-.011-.034-1.115-3.401-4.33-3.758-2.199-.245-2.89-1.491-3.096-2.086 1.478-1.453 2.049-3.239 2.177-3.662 1.205-1.524.678-2.708.417-3.121-.136-.928-.968-5.292-4.665-5.936a.5.5 0 0 0-.172.986c3.195.556 3.803 4.723 3.861 5.196.011.087.044.17.098.24.106.141.588.9-.364 2.066a.573.573 0 0 0-.061.093 1.982 1.982 0 0 0-.078.177c-.093.339-.632 2.098-2.11 3.433a.5.5 0 0 0-.155.471c.095.459.731 2.769 4.037 3.137 2.525.281 3.48 3.044 3.518 3.14l.894 1.779a.5.5 0 0 0 .895-.449l-.866-1.706z"/></svg><svg viewBox="0 0 512 512" xml:space="preserve" id="instagram_1" xmlns="http://www.w3.org/2000/svg"><path d="M437.019 74.981C388.667 26.628 324.379 0 256 0S123.333 26.628 74.981 74.981C26.628 123.333 0 187.621 0 256s26.628 132.667 74.981 181.019C123.333 485.372 187.621 512 256 512s132.667-26.628 181.019-74.981S512 324.379 512 256s-26.628-132.667-74.981-181.019zM256 495.832C123.756 495.832 16.168 388.244 16.168 256S123.756 16.168 256 16.168 495.832 123.756 495.832 256 388.244 495.832 256 495.832z"/><path d="M347.845 97.011h-183.69c-37.024 0-67.144 30.121-67.144 67.144v183.692c0 37.022 30.121 67.143 67.144 67.143h183.692c37.022 0 67.143-30.121 67.143-67.144V164.155c-.001-37.024-30.121-67.144-67.145-67.144zm50.976 250.834c0 28.108-22.868 50.976-50.976 50.976h-183.69c-28.108 0-50.976-22.868-50.976-50.976v-183.69c0-28.108 22.868-50.976 50.976-50.976h183.692c28.107 0 50.975 22.868 50.975 50.976v183.69z"/><path d="M339.402 251.22c-2.391-42.533-37.002-76.75-79.558-78.669-49.108-2.214-89.535 38.232-87.292 87.346 1.945 42.56 36.19 77.154 78.728 79.51 17.951.995 34.762-3.727 48.803-12.494 4.374-2.731 5.087-8.814 1.441-12.459l-.115-.115c-2.657-2.658-6.778-3.059-9.971-1.075a66.948 66.948 0 0 1-36.158 10.102c-37.455-.394-67.676-31.844-66.621-69.286 1.061-37.681 33.215-67.721 71.657-65.312 33.126 2.076 60.09 28.49 62.819 61.569 1.111 13.475-1.787 26.206-7.61 37.157-1.667 3.136-1.153 6.982 1.358 9.493l.124.124c3.773 3.773 10.154 2.886 12.675-1.816 6.982-13.026 10.619-28.098 9.72-44.075z"/><circle cx="342.232" cy="158.989" r="21.558"/></svg><svg xml:space="preserve" viewBox="0 0 40 40" id="instagram_2" xmlns="http://www.w3.org/2000/svg"><path d="M20 2c9.925 0 18 8.075 18 18s-8.074 18-18 18S2 29.925 2 20 10.075 2 20 2m0-2C8.954 0 0 8.954 0 20c0 11.047 8.954 20 20 20 11.044 0 20-8.953 20-20C40 8.954 31.045 0 20 0z"/><path clip-rule="evenodd" d="M12.537 10.641h14.926a2.584 2.584 0 0 1 2.576 2.577v14.925a2.584 2.584 0 0 1-2.576 2.577H12.537a2.584 2.584 0 0 1-2.577-2.577V13.218a2.584 2.584 0 0 1 2.577-2.577zm12.051 2.231a.906.906 0 0 0-.904.904v2.164c0 .497.406.903.904.903h2.27a.905.905 0 0 0 .902-.903v-2.164a.906.906 0 0 0-.902-.904h-2.27zm3.182 6.26h-1.768c.168.546.258 1.124.258 1.724 0 3.34-2.795 6.047-6.24 6.047-3.447 0-6.243-2.707-6.243-6.047 0-.6.091-1.178.258-1.724h-1.844v8.482a.8.8 0 0 0 .798.799h13.983a.8.8 0 0 0 .797-.799v-8.482h.001zm-7.75-2.402c-2.229 0-4.034 1.749-4.034 3.907 0 2.159 1.805 3.909 4.034 3.909 2.226 0 4.031-1.75 4.031-3.909 0-2.158-1.805-3.907-4.031-3.907z" fill-rule="evenodd"/></svg><svg viewBox="0 0 29 32" xml:space="preserve" id="location_1" xmlns="http://www.w3.org/2000/svg"><path d="m1.045 27.731 13.303 4.245a.493.493 0 0 0 .309-.001l13.312-4.407c.626-.208 1.031-.765 1.031-1.423s-.404-1.218-1.03-1.425l-7.733-2.56a.5.5 0 1 0-.315.949l7.733 2.56c.32.106.345.391.345.476a.486.486 0 0 1-.344.474l-13.159 4.356L1.35 26.778a.486.486 0 0 1-.35-.471.487.487 0 0 1 .339-.478l8.028-2.753a.5.5 0 0 0-.324-.946l-8.028 2.753c-.623.214-1.022.776-1.015 1.434s.417 1.213 1.045 1.414z"/><path d="M15.679.063C9.81-.595 4.817 3.982 4.817 9.705c0 2.24.729 4.23 2.355 6.442l6.31 9.121a1.33 1.33 0 0 0 2.194-.003l4.173-5.993 2.344-3.568c1.655-2.094 2.361-4.718 1.988-7.388-.6-4.294-4.176-7.765-8.502-8.253zm5.703 15.057-2.362 3.592-4.168 5.986a.332.332 0 0 1-.548.002l-6.318-9.133c-1.5-2.041-2.169-3.85-2.169-5.862C5.817 4.905 9.734 1 14.548 1c.335 0 .675.019 1.018.058 3.88.437 7.086 3.548 7.624 7.397a8.693 8.693 0 0 1-1.808 6.665z"/><path d="M14.497 4.705c-2.757 0-5 2.243-5 5s2.243 5 5 5 5-2.243 5-5-2.244-5-5-5zm0 9c-2.206 0-4-1.794-4-4s1.794-4 4-4 4 1.794 4 4-1.795 4-4 4z"/></svg><svg viewBox="0 0 33 32" xml:space="preserve" id="male_1" xmlns="http://www.w3.org/2000/svg"><path d="M.59 32a.5.5 0 0 0 .5-.5c0-3.991 2.092-4.601 4.74-5.372l.48-.141c2.74-.815 4.771-3.132 5.754-4.987h.793a.5.5 0 0 0 .5-.5c0-2.871-1.857-5.279-1.936-5.38a.518.518 0 0 0-.485-.184c-.113.02-.686.058-.991-.904-.05-.159-.116-.344-.187-.545-.243-.688-.812-2.298-.34-2.487a.5.5 0 0 0 .297-.594c-.208-.771-.648-4.428 1.193-6.931C12.046 1.928 13.857 1.096 16.277 1c.054.007 5.548-.001 5.594 3.122a.5.5 0 0 0 .291.447c.026.012 2.604 1.254.962 5.406a.5.5 0 0 0 .036.441c.553.922.045 2.595-.211 3.2-.067.198-.335.8-.684.97a.378.378 0 0 1-.311.013.497.497 0 0 0-.519.118c-2.478 2.478-1.831 5.747-1.802 5.885a.502.502 0 0 0 .491.398h1.27c1.286 2.479 3.341 4.334 5.546 4.99l.376.111c2.567.754 4.594 1.35 4.594 5.398a.5.5 0 0 0 1 0c0-4.797-2.701-5.591-5.312-6.358l-.373-.11c-3-.893-4.642-3.862-5.073-4.75a.501.501 0 0 0-.45-.281h-1.14c-.07-.826-.052-2.782 1.397-4.381.253.028.511-.018.75-.136.785-.386 1.151-1.433 1.175-1.511.042-.098.971-2.297.254-3.846 1.488-4.002-.513-5.79-1.281-6.302C22.519-.009 16.534.001 16.253.001c-2.754.108-4.823 1.077-6.15 2.881-1.885 2.562-1.675 6.066-1.433 7.415-.841.733-.256 2.387.146 3.523.067.19.129.364.177.514.389 1.226 1.211 1.578 1.789 1.607.384.559 1.394 2.187 1.555 4.059h-.578a.5.5 0 0 0-.45.282c-.832 1.712-2.714 3.982-5.283 4.747l-.476.139C2.991 25.914.09 26.758.09 31.5a.5.5 0 0 0 .5.5z"/></svg><svg viewBox="0 0 32 32" xml:space="preserve" id="map-pointer_1" xmlns="http://www.w3.org/2000/svg"><path d="m.943 28.222 9.371 3.742a.488.488 0 0 0 .372 0l9.823-3.923 9.48 3.441a1.498 1.498 0 0 0 2.012-1.41V9.194c0-.629-.397-1.195-.988-1.41l-5.997-2.177a.5.5 0 1 0-.342.941l5.997 2.177c.196.071.329.26.329.469v20.879a.498.498 0 0 1-.67.47L21 27.156V19a.5.5 0 0 0-1 0v8.167l-9 3.594V20a.5.5 0 0 0-1 0v10.762l-8.686-3.468A.499.499 0 0 1 1 26.829V5.976c0-.168.08-.319.22-.414a.493.493 0 0 1 .466-.05l3.24 1.294a.5.5 0 0 0 .371-.929l-3.24-1.294A1.501 1.501 0 0 0 0 5.976v20.853c0 .617.37 1.164.943 1.393z"/><path d="M14.057 22.467a1.235 1.235 0 0 0 2.036-.003l3.696-5.308L21.863 14c1.475-1.868 2.104-4.207 1.771-6.586C23.1 3.585 19.912.491 16.054.056c-5.233-.58-9.681 3.494-9.681 8.595 0 1.997.648 3.77 2.096 5.738l5.588 8.078zM15.047 1c.295 0 .594.017.896.051 3.41.384 6.229 3.119 6.701 6.502a7.651 7.651 0 0 1-1.592 5.862l-2.092 3.18-3.691 5.301c-.123.18-.268.179-.391.001l-5.596-8.089c-1.321-1.797-1.91-3.388-1.91-5.158C7.373 4.432 10.815 1 15.047 1z"/><path d="M15.002 11.651c1.654 0 3-1.346 3-3s-1.346-3-3-3-3 1.346-3 3 1.346 3 3 3zm0-5c1.103 0 2 .897 2 2s-.897 2-2 2-2-.897-2-2 .897-2 2-2z"/></svg><svg viewBox="0 0 30 32" xml:space="preserve" id="mobile_phone_1" xmlns="http://www.w3.org/2000/svg"><path d="M1.5 32H13a.5.5 0 0 0 0-1H1.5a.5.5 0 0 1-.5-.5v-29a.5.5 0 0 1 .5-.5h20a.5.5 0 0 1 .5.5V5a.5.5 0 0 0 1 0V1.5c0-.827-.673-1.5-1.5-1.5h-20C.673 0 0 .673 0 1.5v29c0 .827.673 1.5 1.5 1.5z"/><path d="M10 4a.5.5 0 0 0 0 1h3a.5.5 0 0 0 0-1h-3zM15 8.5v22c0 .827.673 1.5 1.5 1.5h12c.827 0 1.5-.673 1.5-1.5v-22c0-.827-.673-1.5-1.5-1.5h-12c-.827 0-1.5.673-1.5 1.5zm14 0v22a.5.5 0 0 1-.5.5h-12a.5.5 0 0 1-.5-.5v-22a.5.5 0 0 1 .5-.5h12a.5.5 0 0 1 .5.5z"/><path d="M22.301 25.65c-.931 0-1.688.757-1.688 1.688s.757 1.688 1.688 1.688 1.688-.757 1.688-1.688-.758-1.688-1.688-1.688zm0 2.376a.69.69 0 0 1 0-1.376.69.69 0 0 1 0 1.376zM21 11h3a.5.5 0 0 0 0-1h-3a.5.5 0 0 0 0 1z"/></svg><svg viewBox="0 0 33 32" xml:space="preserve" id="paper-plane_1" xmlns="http://www.w3.org/2000/svg"><path d="M.004 10.895a1.586 1.586 0 0 0 1.135 1.539l12.019 3.724c.192.06.329.229.349.43l1.361 13.949c.094.962.889 1.466 1.625 1.466a1.59 1.59 0 0 0 1.432-.878L32.817 2.354a1.597 1.597 0 0 0-.052-1.575c-.032-.053-.082-.089-.12-.138-.014-.024-.02-.05-.038-.072-.025-.03-.057-.048-.086-.071-.418-.419-1.039-.606-1.618-.425L1.136 9.354a1.586 1.586 0 0 0-1.132 1.541zm17.031 19.77a.59.59 0 0 1-.543.337c-.276 0-.592-.176-.629-.563L14.502 16.49a1.467 1.467 0 0 0-.089-.355l17.573-14.41a.648.648 0 0 1-.057.169L17.035 30.665zM1.434 10.309l29.768-9.281c.024-.008.048-.007.072-.011L13.781 15.359a1.47 1.47 0 0 0-.327-.157L1.436 11.479a.595.595 0 0 1-.432-.585c0-.218.113-.487.43-.585z"/></svg><svg viewBox="0 0 32 32" xml:space="preserve" id="phone_1" xmlns="http://www.w3.org/2000/svg"><path d="M31.584 25.999c0-.401-.157-.778-.441-1.062l-6.557-6.539c-.566-.566-1.553-.565-2.119-.001l-2.045 2.041a1.488 1.488 0 0 0-.304 1.679c-2.695 1.931-6.947-2.199-6.983-2.235a82.033 82.033 0 0 0-.98-.978c-.044-.044-4.222-4.317-2.221-7.006a1.487 1.487 0 0 0 1.573-.343l2.045-2.039c.284-.284.441-.661.441-1.062s-.157-.778-.441-1.062L6.995.85C6.429.288 5.443.288 4.877.85L2.831 2.891a1.489 1.489 0 0 0-.396 1.411c-.927.77-3.638 3.493-1.822 7.814 1.136 2.701 3.069 6.43 7.973 11.319 4.903 4.891 8.64 6.819 11.348 7.952 1.042.437 1.991.61 2.844.61 2.754 0 4.489-1.815 5.033-2.481.075.011.15.022.227.022.4 0 .776-.155 1.059-.438l2.045-2.039a1.49 1.49 0 0 0 .442-1.062zM3.537 3.599l2.045-2.04a.497.497 0 0 1 .706 0L12.846 8.1c.095.094.147.22.147.354s-.052.26-.147.354l-2.045 2.039a.514.514 0 0 1-.707.001L3.537 4.307a.498.498 0 0 1 0-.708zm16.784 26.867c-2.624-1.099-6.248-2.97-11.028-7.738-4.78-4.767-6.657-8.382-7.757-10.999-1.521-3.619.59-5.864 1.433-6.578l6.163 6.148c-2.529 3.349 2.107 8.101 2.322 8.317.168.162.8.792.97.968.164.162 3.156 3.077 6.059 3.077.784 0 1.557-.233 2.271-.77l6.163 6.146c-.719.841-2.971 2.942-6.596 1.429zm10.116-4.112-2.045 2.04a.511.511 0 0 1-.706-.001l-6.557-6.539a.5.5 0 0 1 0-.708l2.046-2.041a.497.497 0 0 1 .706 0l6.557 6.54a.5.5 0 0 1-.001.709z"/></svg><svg xml:space="preserve" viewBox="0 0 40 40" id="phone_2" xmlns="http://www.w3.org/2000/svg"><path d="M20 2c9.925 0 18 8.075 18 18s-8.075 18-18 18S2 29.925 2 20 10.075 2 20 2m0-2C8.955 0 0 8.954 0 20c0 11.047 8.955 20 20 20 11.047 0 20-8.953 20-20C40 8.954 31.047 0 20 0z"/><path clip-rule="evenodd" d="M14.371 9.793c1.207-.228 1.998 1.133 2.6 2.072.586.912 1.307 1.982 1.016 3.169-.162.666-.764 1.029-1.219 1.422-.449.388-1.133.744-1.299 1.34-.271.967.322 1.982.689 2.56a14.704 14.704 0 0 0 3.129 3.534c.623.51 1.488 1.191 2.355 1.016 1.295-.262 1.637-1.859 3.047-2.072 1.342-.203 2.25.77 3.008 1.422.73.631 1.908 1.439 1.828 2.52-.047.621-.545 1.006-.977 1.381-.439.383-.824.813-1.258 1.096-1.051.686-2.34 1.022-3.82.976-1.451-.045-2.607-.538-3.656-1.097-2.051-1.094-3.672-2.633-5.199-4.348-1.502-1.686-2.889-3.682-3.656-5.889-.957-2.756-.451-5.587 1.098-7.353.262-.3.676-.613 1.055-.935.378-.323.728-.714 1.259-.814z" fill-rule="evenodd"/></svg><svg viewBox="0 0 202.592 202.592" xml:space="preserve" id="phone_3" xmlns="http://www.w3.org/2000/svg"><path d="m198.048 160.105-31.286-31.29c-6.231-6.206-16.552-6.016-23.001.433L128 145.009a649.985 649.985 0 0 1-3.11-1.732c-9.953-5.515-23.577-13.074-37.914-27.421C72.599 101.48 65.03 87.834 59.5 77.874c-.587-1.056-1.145-2.072-1.696-3.038l10.579-10.565 5.2-5.207c6.46-6.46 6.639-16.778.419-23.001L42.715 4.769c-6.216-6.216-16.541-6.027-23.001.433l-8.818 8.868.243.24c-2.956 3.772-5.429 8.124-7.265 12.816-1.696 4.466-2.752 8.729-3.235 12.998-4.13 34.25 11.52 65.55 53.994 108.028 58.711 58.707 106.027 54.273 108.067 54.055 4.449-.53 8.707-1.593 13.038-3.275 4.652-1.818 9.001-4.284 12.769-7.233l.193.168 8.933-8.747c6.446-6.459 6.632-16.777.415-23.015zm-7.365 16.059-3.937 3.93-1.568 1.507c-2.469 2.387-6.743 5.74-12.984 8.181-3.543 1.364-7.036 2.24-10.59 2.663-.447.043-44.95 3.84-100.029-51.235C14.743 94.38 7.238 67.395 10.384 41.259c.394-3.464 1.263-6.95 2.652-10.593 2.462-6.277 5.812-10.547 8.181-13.02l5.443-5.497c2.623-2.63 6.714-2.831 9.112-.433l31.286 31.286c2.394 2.401 2.205 6.492-.422 9.13L45.507 73.24l1.95 3.282c1.084 1.829 2.23 3.879 3.454 6.106 5.812 10.482 13.764 24.83 29.121 40.173 15.317 15.325 29.644 23.27 40.094 29.067 2.258 1.249 4.32 2.398 6.17 3.5l3.289 1.95 21.115-21.122c2.634-2.623 6.739-2.817 9.137-.426l31.272 31.279c2.391 2.397 2.201 6.488-.426 9.115z"/></svg><svg viewBox="0 0 19 32" xml:space="preserve" id="pin-man-range_1" xmlns="http://www.w3.org/2000/svg"><path d="M3.5 13.964v3.896c0 2.06 1.598 3.76 3.643 3.968l1.063 6.097C8.315 28.548 8.859 29 9.5 29s1.185-.452 1.294-1.076l1.063-6.097c2.044-.207 3.643-1.907 3.643-3.968v-3.67a6.179 6.179 0 0 0-2.992-5.277c1.26-.924 2.035-2.396 2.035-3.964C14.543 2.22 12.281 0 9.5 0S4.457 2.22 4.457 4.948c0 1.578.748 3.019 2 3.942C4.634 9.935 3.5 11.838 3.5 13.964zm4.19-4.553a.5.5 0 0 0 .038-.919c-1.401-.67-2.272-2.027-2.272-3.544C5.457 2.771 7.271 1 9.5 1s4.043 1.771 4.043 3.948c0 1.504-.9 2.898-2.293 3.554a.5.5 0 0 0 .029.917c1.926.759 3.22 2.676 3.22 4.771v3.67c0 1.648-1.375 2.989-3.067 2.989a.5.5 0 0 0-.493.414l-1.131 6.489c-.05.287-.567.287-.617 0L8.06 21.263a.504.504 0 0 0-.496-.414c-1.689 0-3.064-1.341-3.064-2.989v-3.896c0-2.03 1.252-3.818 3.19-4.553z"/><path d="M19 29.418c0-1.595-3.727-2.198-5.948-2.416-.276-.013-.52.175-.546.449a.5.5 0 0 0 .449.547c3.76.368 5.014 1.17 5.045 1.419-.053.437-2.747 1.583-8.5 1.583S1.053 29.854 1 29.419c.032-.246 1.257-1.035 4.922-1.409a.5.5 0 1 0-.102-.994c-2.174.22-5.82.828-5.82 2.402C0 31.46 6.214 32 9.5 32s9.5-.54 9.5-2.582z"/></svg><svg viewBox="0 0 13 32" xml:space="preserve" id="pin-man_1" xmlns="http://www.w3.org/2000/svg"><path d="M0 15.502v4.138c0 2.247 1.895 4.166 4.223 4.373l1.285 6.834c.111.646.739 1.153 1.43 1.153.685 0 1.286-.496 1.4-1.169l.943-6.821C11.43 23.792 13 21.987 13 19.64v-3.886c0-2.507-1.177-4.711-3.064-5.866 1.48-1.035 2.396-2.691 2.396-4.432C12.332 2.447 9.912 0 6.938 0 3.946 0 1.512 2.447 1.512 5.456c0 1.835.735 3.413 2.007 4.39C1.382 11.02 0 13.193 0 15.502zm4.747-5.128a.502.502 0 0 0 .039-.915c-1.424-.694-2.274-2.191-2.274-4.003C2.512 2.999 4.498 1 6.938 1c2.464 0 4.394 1.957 4.394 4.456 0 1.662-1.042 3.238-2.656 4.015a.5.5 0 0 0 .03.914C10.707 11.19 12 13.297 12 15.754v3.886c0 1.934-1.357 3.392-3.157 3.392a.5.5 0 0 0-.495.432l-.998 7.215c-.03.176-.215.321-.412.321-.204 0-.415-.153-.445-.33l-1.359-7.231a.499.499 0 0 0-.491-.407C2.702 23.032 1 21.447 1 19.64v-4.138c0-2.164 1.541-4.273 3.747-5.128z"/></svg><svg viewBox="0 0 23 32" xml:space="preserve" id="pin_1" xmlns="http://www.w3.org/2000/svg"><path d="M5.96 18.695a.5.5 0 0 0-.921-.389L.103 29.962c-.263.69-.008 1.414.634 1.801a1.56 1.56 0 0 0 2.009-.302l8.131-9.388a.5.5 0 1 0-.756-.654l-8.128 9.384c-.235.265-.546.221-.74.104-.108-.065-.344-.253-.223-.572l4.93-11.64zM22.996 6.057a1.363 1.363 0 0 0-.698-1.3L14.228.185a1.431 1.431 0 0 0-1.759.303 1.348 1.348 0 0 0-.318 1.088l.587 4.08a.375.375 0 0 1-.221.394L.696 11.486c-.437.25-.697.698-.696 1.197s.263.945.702 1.194l15.782 8.939c.212.12.452.184.693.184.755 0 1.369-.584 1.396-1.375L17.891 9.12a.382.382 0 0 1 .25-.373l3.964-1.508c.509-.192.85-.646.891-1.182zm-1.246.248-3.965 1.508a1.376 1.376 0 0 0-.892 1.361l.681 12.459c-.009.23-.209.367-.397.367a.4.4 0 0 1-.2-.054l-15.782-8.94A.37.37 0 0 1 1 12.68c0-.064.019-.226.154-.306l11.781-5.417c.562-.258.88-.839.793-1.445l-.587-4.079a.355.355 0 0 1 .084-.291.405.405 0 0 1 .51-.087l8.07 4.572a.366.366 0 0 1 .194.354.369.369 0 0 1-.249.324z"/></svg><svg viewBox="0 0 32 32" xml:space="preserve" id="play-button_1" xmlns="http://www.w3.org/2000/svg"><path d="M16 0C7.178 0 0 7.178 0 16s7.178 16 16 16 16-7.178 16-16S24.822 0 16 0zm0 31C7.729 31 1 24.271 1 16S7.729 1 16 1s15 6.729 15 15-6.729 15-15 15z"/><path d="M19.609 14.802 14.316 10.8a1.462 1.462 0 0 0-.88-.302c-.805 0-1.436.66-1.436 1.502v8c0 .842.635 1.502 1.445 1.502.313 0 .619-.104.885-.304l5.258-3.998c.382-.287.611-.742.611-1.218a1.463 1.463 0 0 0-.59-1.18zm-.624 1.599-5.258 3.998c-.293.223-.727.054-.727-.399v-8c0-.326.225-.502.437-.502a.46.46 0 0 1 .279.101l5.293 4.002c.165.123.19.292.19.382a.519.519 0 0 1-.214.418z"/></svg><svg viewBox="0 0 31 32" xml:space="preserve" id="search_1" xmlns="http://www.w3.org/2000/svg"><path d="M13.025 26.614c2.117 0 4.208-.524 6.07-1.519l5.606 5.766a3.597 3.597 0 0 0 2.59 1.09 3.6 3.6 0 0 0 2.59-1.09 3.772 3.772 0 0 0 0-5.254l-5.542-5.652a13.487 13.487 0 0 0 1.767-6.672c0-7.352-5.868-13.332-13.081-13.332-7.212 0-13.081 5.98-13.081 13.332 0 7.351 5.868 13.331 13.081 13.331zm0-25.663c6.661 0 12.081 5.532 12.081 12.332 0 2.293-.632 4.541-1.828 6.502a.496.496 0 0 0 .145.664l5.744 5.857a2.768 2.768 0 0 1 0 3.855c-.999 1.018-2.755 1.017-3.75.001l-5.875-6.043a.506.506 0 0 0-.358-.163.439.439 0 0 0-.276.1 11.884 11.884 0 0 1-5.882 1.558C6.365 25.614.945 20.083.945 13.283S6.364.951 13.025.951z"/><path d="M13.025 21.532c4.465 0 8.098-3.7 8.098-8.249s-3.633-8.25-8.098-8.25c-4.465 0-8.098 3.701-8.098 8.25s3.633 8.249 8.098 8.249zm0-15.499c3.914 0 7.098 3.252 7.098 7.25 0 3.997-3.184 7.249-7.098 7.249-3.914 0-7.098-3.252-7.098-7.249 0-3.998 3.184-7.25 7.098-7.25z"/></svg><svg viewBox="0 0 32 32" xml:space="preserve" id="tick_1" xmlns="http://www.w3.org/2000/svg"><path d="M16 0C7.178 0 0 7.178 0 16s7.178 16 16 16 16-7.178 16-16S24.822 0 16 0zm0 31C7.729 31 1 24.271 1 16S7.729 1 16 1s15 6.729 15 15-6.729 15-15 15z"/><path d="m22.634 10.165-8.546 9.21a.509.509 0 0 1-.732 0l-3.989-4.299a.499.499 0 1 0-.733.68l3.988 4.299a1.504 1.504 0 0 0 2.2 0l8.545-9.21a.499.499 0 1 0-.733-.68z"/></svg><svg viewBox="0 0 32 32" xml:space="preserve" id="twitter_1" xmlns="http://www.w3.org/2000/svg"><path d="M16-.035C7.159-.035-.035 7.159-.035 16S7.159 32.035 16 32.035 32.035 24.841 32.035 16 24.841-.035 16-.035zm0 31C7.748 30.965 1.035 24.252 1.035 16S7.748 1.035 16 1.035 30.965 7.748 30.965 16 24.252 30.965 16 30.965z"/><path d="M20.5 12H17V8.5a.5.5 0 0 0-.5-.5h-2.581a.502.502 0 0 0-.498.449c-.092.907-.25 1.354-.509 1.863-.238.47-.56.88-.979 1.238-.407.346-.675.575-1.533.75a.5.5 0 0 0-.4.49v2.71a.5.5 0 0 0 .5.5H12v4.667c0 .693.071.895.207 1.218l.059.143c.005.013.513 1.268 1.113 1.785.447.384.988.682 1.608.886a5.363 5.363 0 0 0 1.881.301c.678 0 1.321-.07 1.913-.207.1-.023.224-.049.359-.077.998-.204 1.86-.38 1.86-1.049v-2.406a.501.501 0 0 0-.733-.442c-.981.517-1.172.576-1.857.576-.366 0-.679-.081-.961-.25-.105-.062-.449-.461-.449-2.986V16h3.5a.5.5 0 0 0 .5-.5v-3a.5.5 0 0 0-.5-.5zm-.5 3h-3.5a.5.5 0 0 0-.5.5v2.659c0 2.733.376 3.515.938 3.846.432.259.927.39 1.472.39.662 0 1.035-.074 1.59-.325v1.399c-.253.102-.803.215-1.06.268-.147.03-.281.057-.387.083a7.591 7.591 0 0 1-1.685.18 4.402 4.402 0 0 1-1.569-.251 3.707 3.707 0 0 1-1.268-.694c-.288-.248-.669-.981-.836-1.397l-.066-.16c-.096-.229-.129-.307-.129-.831V15.5a.5.5 0 0 0-.5-.5H11v-1.814c.817-.223 1.178-.531 1.603-.893.5-.425.904-.939 1.202-1.528.253-.497.44-.986.556-1.765H16v3.5a.5.5 0 0 0 .5.5H20v2z"/></svg><svg viewBox="0 0 32 32" xml:space="preserve" id="twitter_2" xmlns="http://www.w3.org/2000/svg"><path d="M16-.035C7.159-.035-.035 7.159-.035 16S7.159 32.035 16 32.035 32.035 24.841 32.035 16 24.841-.035 16-.035zm0 31C7.748 30.965 1.035 24.252 1.035 16S7.748 1.035 16 1.035 30.965 7.748 30.965 16 24.252 30.965 16 30.965z"/><path d="M24.797 11.082a6.856 6.856 0 0 1-.083.036 3.73 3.73 0 0 0 .319-.725.499.499 0 0 0-.731-.582 6.065 6.065 0 0 1-1.673.681 3.786 3.786 0 0 0-6.331 2.988 8.854 8.854 0 0 1-5.797-3.195.5.5 0 0 0-.82.064 3.787 3.787 0 0 0-.512 1.902c0 .667.15 1.29.432 1.832a.513.513 0 0 0-.412.116.543.543 0 0 0-.189.412c0 1.157.547 2.218 1.422 2.921l-.021.022a.502.502 0 0 0-.102.484 3.784 3.784 0 0 0 2.242 2.373 6.193 6.193 0 0 1-3.487.616.5.5 0 0 0-.326.918 9.808 9.808 0 0 0 5.302 1.554c6.159 0 9.839-5.002 9.839-9.839l-.001-.18a7.063 7.063 0 0 0 1.547-1.664.5.5 0 0 0-.618-.734zm-1.729 1.747a.5.5 0 0 0-.208.431c.006.133.009.267.009.4 0 4.345-3.306 8.839-8.839 8.839a8.805 8.805 0 0 1-3.023-.534 7.03 7.03 0 0 0 3.152-1.406.5.5 0 0 0-.299-.893 2.796 2.796 0 0 1-2.266-1.227c.246-.015.482-.056.742-.126a.5.5 0 0 0-.033-.973 2.895 2.895 0 0 1-2.212-2.076l.125.044c.251.09.45.162.828.173a.502.502 0 0 0 .294-.916c-.741-.495-1.166-1.339-1.166-2.316 0-.247.033-.491.096-.726a9.851 9.851 0 0 0 6.588 3.005.476.476 0 0 0 .408-.179.5.5 0 0 0 .104-.434 2.785 2.785 0 0 1 4.742-2.537.503.503 0 0 0 .462.148 7.26 7.26 0 0 0 .654-.162 2.894 2.894 0 0 1-.366.262.499.499 0 0 0 .316.925 7.56 7.56 0 0 0 .302-.042 6.272 6.272 0 0 1-.41.32z"/></svg><svg viewBox="0 0 31 32" xml:space="preserve" id="worker-cap_1" xmlns="http://www.w3.org/2000/svg"><path d="M9.01 21c0 1.103.897 2 2 2s2-.897 2-2-.897-2-2-2-2 .897-2 2zm2-1a1 1 0 1 1 0 2 1 1 0 0 1 0-2zM17.919 21c0 1.103.897 2 2 2s2-.897 2-2-.897-2-2-2-2 .897-2 2zm2-1a1 1 0 1 1 0 2 1 1 0 0 1 0-2zM17.977 25a.5.5 0 0 0-.5.5c0 .827-.897 1.5-2 1.5s-2-.673-2-1.5a.5.5 0 0 0-1 0c0 1.379 1.346 2.5 3 2.5s3-1.121 3-2.5a.5.5 0 0 0-.5-.5z"/><path d="M28.614 13.901c-.786-5.103-4.356-9.268-9.23-10.779A3.992 3.992 0 0 0 15.478 0a3.995 3.995 0 0 0-3.912 3.138C6.72 4.661 3.169 8.821 2.386 13.901 1.059 13.972 0 15.087 0 16.448 0 17.855 1.13 19 2.52 19h.98v.738C3.5 26.499 8.883 32 15.5 32s12-5.501 12-12.262V19h.98c1.39 0 2.52-1.145 2.52-2.552 0-1.361-1.059-2.476-2.386-2.547zM26.5 19.738c0 6.21-4.935 11.262-11 11.262s-11-5.052-11-11.262V19h22v.738zM28.48 18H2.52C1.682 18 1 17.355 1 16.5S1.682 15 2.52 15h.303c.253 0 .477-.24.507-.491.577-4.747 4.17-8.741 8.17-10.29V6.5a.5.5 0 0 0 1 0V3.956c0-.123.011-.24.026-.359.003-.017-.002-.033 0-.05A2.976 2.976 0 0 1 15.48 1a2.98 2.98 0 0 1 2.954 2.524c.001.024.013.046.018.069.015.12.048.239.048.364V6.5a.5.5 0 0 0 1 0V4.203c4 1.537 7.612 5.537 8.193 10.306.03.251.232.491.485.491h.303c.838 0 1.52.644 1.52 1.5S29.318 18 28.48 18z"/></svg><svg viewBox="0 0 32 32" xml:space="preserve" id="youtube_1" xmlns="http://www.w3.org/2000/svg"><path d="M16-.035C7.158-.035-.034 7.159-.034 16S7.158 32.035 16 32.035 32.034 24.841 32.034 16 24.842-.035 16-.035zm0 31C7.748 30.965 1.034 24.252 1.034 16S7.748 1.035 16 1.035 30.966 7.748 30.966 16 24.252 30.965 16 30.965z"/><path d="M19.525 15.616c-.533-.278-1.105-.594-1.678-.909-1.194-.658-2.323-1.28-3.163-1.614a.5.5 0 0 0-.684.465v4.987a.5.5 0 0 0 .715.452c1.006-.478 2.11-1.065 3.179-1.633.545-.291 1.093-.582 1.631-.86a.5.5 0 0 0 0-.888zm-2.101.864c-.809.43-1.638.871-2.424 1.264v-3.417c.699.337 1.543.802 2.365 1.255l.86.472-.801.426z"/><path d="M22.304 10.626c-.812-.293-5-.316-6.264-.316-2.504 0-4.67.072-5.795.193a2.417 2.417 0 0 0-1.617.859c-1.176 1.383-.925 7.562-.412 8.97.265.725.769 1.214 1.498 1.454.984.324 5.328.34 6.189.34 1.759 0 5.934-.045 6.717-.456.486-.253.842-.614 1.058-1.075.728-1.561.68-7.022.087-8.56-.262-.68-.754-1.154-1.461-1.409zm.467 9.546c-.121.26-.322.459-.612.61-.353.167-2.664.344-6.256.344-3.279 0-5.438-.146-5.877-.291a1.297 1.297 0 0 1-.871-.846c-.502-1.378-.551-7.057.235-7.98.253-.299.576-.472.961-.512 1.075-.116 3.255-.188 5.688-.188 3.386 0 5.579.132 5.924.257.435.157.71.42.867.829.501 1.297.548 6.477-.059 7.777z"/></svg><svg xml:space="preserve" viewBox="0 0 40 40" id="youtube_2" xmlns="http://www.w3.org/2000/svg"><path d="M20 2c9.925 0 18 8.075 18 18s-8.075 18-18 18S2 29.926 2 20 10.075 2 20 2m0-2C8.955 0 0 8.955 0 20c0 11.046 8.955 20 20 20 11.047 0 20-8.953 20-20C40 8.955 31.047 0 20 0z"/><path d="M27.779 24.951v.658h-1.288v-.658c0-.657.216-.986.646-.986.427 0 .642.329.642.986zm-5.42-.986c-.213 0-.428.102-.644.313v4.332c.216.215.431.316.644.316.371 0 .56-.316.56-.958v-3.032c0-.642-.189-.971-.56-.971zm8.296 1.424c0 1.663-.003 3.424-.373 5.038-.261 1.133-1.188 1.969-2.305 2.095-2.642.293-5.316.296-7.979.293-2.662.003-5.337 0-7.979-.293-1.116-.126-2.042-.962-2.303-2.095-.371-1.614-.371-3.375-.371-5.038 0-1.66.005-3.422.376-5.036.261-1.133 1.187-1.969 2.303-2.093 2.643-.296 5.316-.297 7.979-.296 2.662 0 5.336 0 7.979.296 1.115.125 2.042.96 2.303 2.093.371 1.614.37 3.376.37 5.036zm-15.231-4.928h-4.489v1.344h1.515v8.193h1.433v-8.193h1.542v-1.344zm3.891 2.432h-1.289v5.432c-.286.403-.556.602-.813.602-.173 0-.271-.102-.303-.301-.012-.042-.012-.199-.012-.501v-5.231h-1.287v5.619c0 .502.042.842.113 1.057.129.359.415.529.831.529.473 0 .958-.287 1.471-.873v.773h1.289v-7.106zm4.891 2.144c0-.674-.044-1.144-.129-1.43-.172-.531-.517-.802-1.029-.802-.474 0-.916.259-1.332.771v-3.115h-1.287v9.537h1.287v-.688c.431.531.873.787 1.332.787.513 0 .857-.271 1.029-.799.085-.303.129-.775.129-1.434v-2.827zm4.86.172c0-.76-.129-1.315-.398-1.674-.36-.487-.874-.729-1.52-.729-.657 0-1.169.242-1.542.729-.273.358-.398.914-.398 1.674v2.488c0 .756.142 1.316.414 1.672.373.484.886.729 1.559.729s1.201-.256 1.557-.771c.157-.228.258-.486.302-.771.012-.129.027-.414.027-.829v-.188h-1.313c0 .517-.017.803-.028.873-.073.344-.259.516-.576.516-.441 0-.657-.327-.657-.986v-1.259h2.575v-1.474zM16.343 12.92v3.904H14.9V12.92c-.132-.691-.421-1.705-.883-3.048-.304-.895-.62-1.792-.925-2.686h1.519l1.024 3.785.983-3.785h1.459l-1.734 5.734zm5.188 3.268c-.358.489-.865.735-1.519.735-.647 0-1.154-.246-1.514-.735-.277-.359-.408-.926-.408-1.689v-2.514c0-.769.131-1.329.408-1.692.359-.491.866-.736 1.514-.736.653 0 1.16.245 1.519.736.272.363.404.924.404 1.692v2.514c.001.763-.131 1.329-.404 1.689zm-.897-4.466c0-.664-.2-.996-.621-.996-.419 0-.62.332-.62.996v3.021c0 .665.201.997.62.997.421 0 .621-.332.621-.997v-3.021zm4.812 5.102v-.784c-.518.594-1.013.882-1.486.882-.418 0-.708-.17-.839-.534-.071-.217-.115-.56-.115-1.067V9.642h1.298v5.289c0 .304 0 .463.017.505.028.202.13.305.304.305.261 0 .533-.202.822-.609v-5.49h1.302v7.183h-1.303z"/></svg></svg>