<svg width="37" height="32" viewBox="0 0 37 32" fill="none" xmlns="http://www.w3.org/2000/svg">
<path fill-rule="evenodd" clip-rule="evenodd" d="M16.0175 24.45C8.94124 24.45 3.20489 19.44 3.20489 13.25C3.20489 7.06 8.94124 2.04004 16.0175 2.04004C23.0937 2.04004 28.8313 7.06 28.8313 13.25C28.8313 19.44 23.0937 24.45 16.0175 24.45ZM36.524 30.25L27.2326 22.12C29.6649 19.77 31.16 16.67 31.16 13.25C31.16 5.93 24.3807 0 16.0175 0C7.65424 0 0.875 5.93 0.875 13.25C0.875 20.56 7.65424 26.49 16.0175 26.49C19.631 26.49 22.9453 25.38 25.5485 23.53L34.877 31.6899C35.3326 32.0899 36.0695 32.0899 36.524 31.6899C36.9796 31.2999 36.9796 30.65 36.524 30.25Z" fill="#8A8A8A"/>
</svg>
