<svg xmlns="http://www.w3.org/2000/svg" xmlns:xlink="http://www.w3.org/1999/xlink" version="1.1" width="256" height="256" viewBox="0 0 256 256" xml:space="preserve">

<defs>
</defs>
<g style=" stroke-width: 0; stroke-dasharray: none; stroke-linecap: butt; stroke-linejoin: miter; stroke-miterlimit: 10;  fill-rule: nonzero; opacity: 1;" transform="translate(1.4065934065934016 1.4065934065934016) scale(2.81 2.81)" >
	<path d="M 50.376 57.847 c -0.437 -0.336 -1.064 -0.258 -1.403 0.179 c -0.338 0.437 -0.258 1.064 0.179 1.403 c 6.02 4.662 11.635 10.181 16.752 16.475 c 0.495 0.501 0.766 1.168 0.761 1.879 c -0.005 0.711 -0.283 1.375 -0.784 1.87 c -0.475 0.47 -1.164 0.703 -1.937 0.657 c -0.778 -0.045 -1.52 -0.369 -2.032 -0.89 c -0.015 -0.015 -0.034 -0.02 -0.05 -0.033 c -0.061 -0.07 -0.109 -0.149 -0.175 -0.216 l -9.877 -9.998 c -0.388 -0.392 -1.02 -0.397 -1.414 -0.008 c -0.393 0.388 -0.396 1.021 -0.008 1.414 l 9.876 9.998 c 0.495 0.501 0.766 1.168 0.761 1.879 s -0.283 1.375 -0.784 1.87 c -0.496 0.49 -1.157 0.761 -1.862 0.761 c -0.005 0 -0.011 0 -0.017 0 c -0.711 -0.005 -1.374 -0.283 -1.869 -0.784 l -2.192 -2.219 l -9.876 -9.998 c -0.389 -0.392 -1.022 -0.397 -1.414 -0.008 c -0.393 0.388 -0.397 1.02 -0.009 1.414 l 9.876 9.998 c 0.495 0.501 0.766 1.168 0.762 1.879 c -0.005 0.711 -0.283 1.375 -0.784 1.869 c -0.5 0.495 -1.171 0.77 -1.879 0.761 c -0.711 -0.005 -1.375 -0.283 -1.87 -0.784 L 37.037 74.999 c -0.388 -0.393 -1.021 -0.397 -1.414 -0.008 c -0.393 0.388 -0.397 1.02 -0.009 1.414 l 10.468 10.597 c -6.645 3.349 -17.633 -8.44 -27.575 -20.081 l 6.245 -20.16 h 4.306 c 0.552 0 1 -0.448 1 -1 c 0 -0.552 -0.448 -1 -1 -1 h -3.686 l 0.717 -2.316 c 0.083 -0.266 0.05 -0.553 -0.088 -0.794 c -0.138 -0.241 -0.371 -0.414 -0.642 -0.476 c -7.788 -1.797 -14.141 -2.769 -19.994 -3.059 c -0.272 -0.016 -0.54 0.085 -0.739 0.274 c -0.198 0.189 -0.311 0.451 -0.311 0.725 v 30.974 c 0 0.553 0.448 1 1 1 h 11.164 c 0.438 0 0.826 -0.285 0.955 -0.704 l 0.373 -1.205 c 9.166 10.674 18.481 20.442 25.788 20.442 c 1.396 0 2.717 -0.363 3.951 -1.137 l 0.136 0.137 c 0.871 0.881 2.035 1.37 3.28 1.378 c 0.011 0 0.021 0 0.03 0 c 1.234 0 2.394 -0.475 3.268 -1.337 c 0.704 -0.696 1.144 -1.582 1.301 -2.544 c 0.798 0.612 1.76 0.962 2.788 0.968 c 0.01 0.001 0.02 0.001 0.029 0.001 c 1.234 0 2.394 -0.475 3.268 -1.338 c 0.881 -0.871 1.37 -2.035 1.378 -3.28 c 0.001 -0.097 -0.021 -0.19 -0.026 -0.287 c 0.272 0.061 0.548 0.108 0.829 0.125 c 0.099 0.006 0.196 0.009 0.295 0.009 c 1.218 0 2.359 -0.444 3.165 -1.24 c 0.881 -0.871 1.37 -2.035 1.378 -3.28 s -0.467 -2.416 -1.272 -3.226 C 62.242 68.231 56.517 62.604 50.376 57.847 z M 6.315 69.089 V 40.173 c 5.178 0.327 10.808 1.198 17.544 2.712 l -8.117 26.204 H 6.315 z" style=" stroke-width: 1; stroke-dasharray: none; stroke-linecap: butt; stroke-linejoin: miter; stroke-miterlimit: 10;  fill-rule: nonzero; opacity: 1;" transform=" matrix(1 0 0 1 0 0) " stroke-linecap="round" />
	<path d="M 85.375 38.39 c -0.198 -0.188 -0.466 -0.288 -0.739 -0.274 c -5.852 0.29 -12.206 1.262 -19.993 3.059 c -0.271 0.063 -0.504 0.235 -0.643 0.476 c -0.139 0.241 -0.17 0.529 -0.088 0.794 l 0.696 2.248 c -5.738 -2.135 -13.727 -3.354 -20.646 -3.089 c -3.845 0 -8.517 2.707 -12.499 7.242 c -3.727 4.245 -5.776 8.926 -5.347 12.216 c 0.034 0.259 0.167 0.493 0.371 0.655 c 1.411 1.117 2.902 1.678 4.488 1.678 c 2.659 0 5.581 -1.578 8.825 -4.748 c 2.272 -0.01 5.034 -1.482 6.248 -2.316 c 0.455 -0.312 0.57 -0.935 0.258 -1.391 c -0.312 -0.455 -0.935 -0.571 -1.39 -0.258 c -1.557 1.068 -4.003 2.093 -5.412 1.952 c -0.298 -0.027 -0.594 0.076 -0.806 0.289 c -5.566 5.582 -8.614 4.919 -10.633 3.478 c -0.128 -2.696 1.754 -6.651 4.901 -10.236 c 3.554 -4.047 7.767 -6.561 11.035 -6.562 c 7.334 -0.278 15.849 1.142 21.37 3.553 l 6.414 20.71 l -3.346 2.036 c -0.472 0.287 -0.621 0.902 -0.334 1.375 c 0.188 0.309 0.518 0.479 0.855 0.479 c 0.177 0 0.356 -0.047 0.519 -0.146 l 2.916 -1.775 l 0.17 0.548 c 0.13 0.419 0.517 0.704 0.955 0.704 h 11.165 c 0.553 0 1 -0.447 1 -1 V 39.115 C 85.685 38.841 85.573 38.579 85.375 38.39 z M 83.685 69.089 h -9.428 l -8.116 -26.204 c 6.736 -1.515 12.365 -2.385 17.544 -2.712 V 69.089 z" style=" stroke-width: 1; stroke-dasharray: none; stroke-linecap: butt; stroke-linejoin: miter; stroke-miterlimit: 10;  fill-rule: nonzero; opacity: 1;" transform=" matrix(1 0 0 1 0 0) " stroke-linecap="round" />
	<path d="M 33.526 39.625 c -0.264 0 -0.527 -0.104 -0.724 -0.31 c -3.721 -3.9 -5.687 -8.6 -5.687 -13.592 V 9.358 c 0 -1.385 0.986 -2.57 2.345 -2.817 c 5.324 -0.968 9.966 -2.968 13.797 -5.944 c 1.026 -0.797 2.461 -0.797 3.486 0 c 3.831 2.975 8.474 4.975 13.797 5.943 c 1.359 0.247 2.346 1.432 2.346 2.817 v 16.365 c 0 4.702 -1.766 9.183 -5.105 12.957 c -0.365 0.416 -0.998 0.452 -1.412 0.086 c -0.413 -0.366 -0.452 -0.998 -0.086 -1.412 c 3.012 -3.404 4.603 -7.426 4.603 -11.632 V 9.358 c 0 -0.418 -0.296 -0.775 -0.703 -0.849 c -5.643 -1.027 -10.578 -3.157 -14.666 -6.331 c -0.305 -0.237 -0.729 -0.237 -1.033 0 c -4.088 3.175 -9.023 5.306 -14.666 6.332 c -0.408 0.074 -0.703 0.431 -0.703 0.849 v 16.365 c 0 4.467 1.775 8.69 5.135 12.211 c 0.381 0.4 0.366 1.033 -0.033 1.414 C 34.022 39.533 33.774 39.625 33.526 39.625 z" style=" stroke-width: 1; stroke-dasharray: none; stroke-linecap: butt; stroke-linejoin: miter; stroke-miterlimit: 10;  fill-rule: nonzero; opacity: 1;" transform=" matrix(1 0 0 1 0 0) " stroke-linecap="round" />
	<path d="M 42.652 30.095 c -0.306 0 -0.596 -0.141 -0.785 -0.381 l -4.696 -5.957 c -0.342 -0.434 -0.268 -1.062 0.166 -1.404 c 0.435 -0.341 1.062 -0.268 1.404 0.166 l 3.911 4.961 l 8.606 -10.919 c 0.342 -0.433 0.971 -0.508 1.404 -0.166 c 0.434 0.342 0.508 0.97 0.166 1.404 l -9.391 11.915 C 43.248 29.955 42.959 30.095 42.652 30.095 z" style=" stroke-width: 1; stroke-dasharray: none; stroke-linecap: butt; stroke-linejoin: miter; stroke-miterlimit: 10;  fill-rule: nonzero; opacity: 1;" transform=" matrix(1 0 0 1 0 0) " stroke-linecap="round" />
</g>
</svg>